<?xml version="1.0" encoding="UTF-8"?>
<svg xmlns="http://www.w3.org/2000/svg" id="Layer_2" data-name="Layer 2" viewBox="0 0 1102.2 977.95"><defs><style> .cls-1 { fill: #fac5aa; } .cls-2 { fill: #105ba2; } </style></defs><g id="Artwork"><g><path class="cls-1" d="m1102.2,0v438.85c0,297.74-241.36,539.1-539.1,539.1h-24.01c-297.73,0-539.09-241.36-539.09-539.1V0"/><path class="cls-2" d="m246.94,571.88c8.12,0,16.24-3.22,22.83-8.89l12.26,15.94c-10.42,7.97-22.83,12.1-36.01,12.1-32.19,0-56.25-22.68-56.25-55.47s25.59-55.48,57.16-55.48c12.26,0,22.38,3.84,32.95,10.42l-10.57,17.01c-6.44-4.9-14.1-8.27-22.38-8.27-19.46,0-33.71,15.94-33.71,36.33,0,21.45,12.72,36.32,33.71,36.32"/><path class="cls-2" d="m345.12,539.4c-.46-9.66-7.21-15.63-16.1-15.63-10.42,0-16.09,6.59-18.39,15.63h34.49Zm-35.56,14.86c1.53,11.04,8.73,19.31,20.23,19.31,10.42,0,15.78-4.29,20.99-11.95l14.26,9.66c-9.2,13.33-19.47,19.77-36.78,19.77-24.37,0-40.76-17.01-40.76-41.22s17.78-43.07,40.92-43.07,38.92,15.78,38.92,37.24c0,3.21-.46,7.05-1.07,10.26h-56.71Z"/><path class="cls-2" d="m400.98,508.59l1.69,11.03c6.44-9.03,16.09-12.87,24.97-12.87s16.4,4.14,21.46,10.57c6.28,8.12,7.2,18.55,7.2,30.04v41.84h-21.76v-40.76c0-5.98-.15-12.72-2.45-17.32-1.99-3.98-5.97-5.67-10.73-5.67-6.44,0-13.49,3.68-17.47,10.27v53.48h-21.77v-80.61h18.86Z"/><path class="cls-2" d="m497.65,526.68v31.27c0,2.45,0,4.6.3,6.89.62,4.75,2.45,7.67,7.05,7.67,3.37,0,5.98-.92,8.74-2.3l6.74,16.1c-5.21,3.06-12.87,4.75-19.15,4.75-12.57,0-20.99-6.89-23.91-17.32-1.23-3.99-1.54-8.73-1.54-13.49v-33.56h-9.66v-18.09h9.66l3.38-17.78h18.39v17.78h20.54v18.09h-20.54,0Z"/><path class="cls-2" d="m551.93,519.32c4.6-7.51,10.88-12.57,18.85-12.57,3.98,0,7.51.77,10.42,1.84l-5.21,19c-2.3-1.22-4.91-1.84-7.67-1.84-6.28,0-11.95,3.52-15.17,8.89v54.56h-21.76v-80.61h18.85l1.69,10.73h0Z"/><path class="cls-2" d="m639.03,539.4c-.46-9.66-7.21-15.63-16.1-15.63-10.42,0-16.09,6.59-18.39,15.63h34.49Zm-35.56,14.86c1.53,11.04,8.73,19.31,20.23,19.31,10.42,0,15.78-4.29,20.99-11.95l14.26,9.66c-9.2,13.33-19.47,19.77-36.78,19.77-24.37,0-40.76-17.01-40.76-41.22s17.78-43.07,40.92-43.07,38.92,15.78,38.92,37.24c0,3.21-.46,7.05-1.07,10.26h-56.71Z"/><path class="cls-2" d="m759.79,493.73c-3.52-1.84-6.9-2.61-11.19-2.61-3.53,0-5.52.92-6.74,2.45-1.69,2.3-2.15,5.83-2.15,9.81v5.21h20.08v18.09h-20.08v62.53h-21.76v-62.53h-8.74v-18.09h8.74v-6.44c0-9.19,1.68-16.39,5.82-21.45,4.44-5.52,11.65-8.27,22.68-8.27,6.9,0,13.79,1.68,20.08,4.6l-6.74,16.71h0Z"/><path class="cls-2" d="m806.22,525.45c-11.95,0-20.08,10.26-20.08,23.45s8.12,23.45,20.08,23.45,19.93-10.27,19.93-23.45-7.97-23.45-19.93-23.45m42.15,23.45c0,23.75-17.62,42.15-42.15,42.15s-42.3-18.39-42.3-42.15,17.62-42.14,42.3-42.14,42.15,18.39,42.15,42.14"/><path class="cls-2" d="m883.15,519.32c4.6-7.51,10.88-12.57,18.85-12.57,3.98,0,7.51.77,10.42,1.84l-5.21,19c-2.3-1.22-4.91-1.84-7.67-1.84-6.28,0-11.95,3.52-15.17,8.89v54.56h-21.76v-80.61h18.85l1.69,10.73h0Z"/><path class="cls-2" d="m313.69,646.17c-7.36,0-13.94,3.68-13.94,10.73,0,8.27,10.11,10.57,18.39,13.49,15.17,5.21,33.41,12.26,33.41,34.79s-21.92,33.25-40.61,33.25c-16.55,0-29.42-6.28-41.07-17.93l14.55-14.25c8.74,8.43,15.48,13.49,26.67,13.49,8.58,0,17.01-4.14,17.01-13.64s-9.81-12.72-20.69-16.71c-13.94-5.21-29.58-11.34-29.58-31.87s17.32-30.04,35.09-30.04c13.79,0,24.67,4.44,35.55,12.72l-12.57,15.63c-5.98-5.06-13.94-9.66-22.22-9.66"/><path class="cls-2" d="m412.8,701.5c-4.14-.92-7.66-1.38-11.03-1.38-7.97,0-17.32,2.91-17.32,12.41,0,7.06,5.83,10.73,12.26,10.73s11.5-2.76,16.09-6.89v-14.87h0Zm2.91,35.09l-1.69-6.89c-5.21,6.43-13.33,8.73-21.91,8.73-15.02,0-28.97-9.04-28.97-25.59,0-19.77,18.39-26.05,35.09-26.05,4.44,0,9.5.61,14.56,1.68v-1.23c0-10.11-4.14-16.24-15.94-16.24-9.2,0-17.32,3.37-24.37,7.05l-5.82-15.63c10.26-5.05,22.68-8.27,34.63-8.27,22.38,0,33.26,13.03,33.26,34.02v48.43h-18.85.01Z"/><path class="cls-2" d="m496.85,641.12c-3.52-1.85-6.9-2.61-11.19-2.61-3.53,0-5.52.92-6.74,2.45-1.69,2.3-2.15,5.83-2.15,9.81v5.21h20.08v18.09h-20.08v62.53h-21.76v-62.53h-8.74v-18.09h8.74v-6.44c0-9.2,1.68-16.4,5.82-21.45,4.44-5.52,11.65-8.27,22.68-8.27,6.9,0,13.79,1.68,20.08,4.6l-6.74,16.71h0Z"/><path class="cls-2" d="m558.45,686.79c-.46-9.66-7.21-15.63-16.1-15.63-10.42,0-16.09,6.59-18.39,15.63h34.49Zm-35.56,14.86c1.53,11.04,8.73,19.31,20.23,19.31,10.42,0,15.78-4.29,20.99-11.95l14.26,9.66c-9.2,13.33-19.47,19.77-36.78,19.77-24.37,0-40.76-17.01-40.76-41.22s17.78-43.07,40.92-43.07,38.92,15.78,38.92,37.24c0,3.21-.46,7.05-1.07,10.26h-56.71Z"/><path class="cls-2" d="m664.33,698.74h25.6l-12.41-36.01h-.15l-13.03,36.01h0Zm38.62,37.86l-6.89-19.93h-38.16l-7.2,19.93h-24.37l43.83-107.28h17.78l40.31,107.28h-25.3Z"/><path class="cls-2" d="m739.69,655.98h21.76v80.61h-21.76v-80.61Zm0-29.73h21.76v18.55h-21.76v-18.55Z"/><g><path class="cls-2" d="m801.22,666.71c4.6-7.51,10.88-12.57,18.85-12.57,3.98,0,7.51.77,10.42,1.84l-5.21,19c-2.3-1.22-4.91-1.84-7.67-1.84-6.28,0-11.95,3.53-15.17,8.89v54.56h-21.76v-80.61h18.85l1.69,10.73h0Z"/><path class="cls-2" d="m511.75,390.72c-16.45-6.47-35.43-8.21-40.65,5.87-3.05,8.23,2.51,18.32,18.38,25.86,15.42,7.32,32.81,10.95,50.99,10.95,24.27,0,46.9-6.98,66.01-19.05,2.82-1.78.92-6.14-2.3-5.28-39.59,10.62-55.62-3.89-92.43-18.36m78.43-39.74c-39.27-8.96-51.9-30.82-83.46-45.68-31.02-14.62-63.7-13.85-77.22,18.07-8.52,20.11-1.92,41.8,11.1,59.47,1.6,2.17,5.01,1.17,5.23-1.53.01-.08.02-.17.02-.25.86-9.57,6.87-17.78,15.66-21.67,9.37-4.16,20.97-4.58,34.79-1.28,31.6,7.55,55.62,32.63,89.16,32.91,14.73.11,29.53-3.65,42.81-11.39,22.05-14.63,32.07-30.88,35.03-53.52.41-3.14-3.84-4.58-5.42-1.83-13.61,23.84-38.15,33.45-67.7,26.7m-20.92-123.05c16.44,6.47,35.43,8.2,40.64-5.88,3.06-8.23-2.51-18.32-18.38-25.86-15.42-7.32-32.81-10.95-50.99-10.95-24.27,0-46.91,6.98-66.02,19.05-2.82,1.78-.92,6.14,2.3,5.28,39.59-10.62,55.61,3.89,92.43,18.36m-146.14,66.44c-1.57,2.75-5.83,1.31-5.41-1.83,2.96-22.63,12.98-38.89,35.03-53.52,13.27-7.74,28.07-11.51,42.81-11.39,33.53.28,57.55,25.36,89.16,32.91,13.82,3.3,25.41,2.88,34.79-1.28,8.78-3.89,14.8-12.1,15.65-21.67.01-.08.02-.17.02-.25.22-2.7,3.63-3.7,5.24-1.53,13.03,17.67,19.62,39.36,11.1,59.47-13.52,31.92-46.2,32.69-77.22,18.07-31.55-14.86-44.19-36.72-83.45-45.68-29.56-6.75-54.1,2.86-67.71,26.7"/></g></g></g></svg>